# xmcd CD database file
#
# Track frame offsets:
#	150
#	15069
#	30716
#	44167
#	61257
#	76705
#	92445
#	108933
#	121717
#	136221
#	149776
#	163701
#	175387
#	188844
#	204171
#	218822
#	229825
#	242011
#	257269
#
# Disc length: 3617 seconds
#
# Revision: 0
# Processed by: cddbd v1.5.1PL2 Copyright (c) Steve Scherf et al.
# Submitted via: CDex 1.51
#
DISCID=f30e1f13
DTITLE=TUJA_CD06 - Washboard Rhythm Kings
DYEAR=1933
DGENRE=Jazz
TTITLE0=Swing Gate
TTITLE1=Hustlin' And Bustlin' For Baby
TTITLE2=Going! Going! Gone
TTITLE3=A Ghost Of A Chance
TTITLE4=Midnight Rythm
TTITLE5=Shuffle Off To Buffalo
TTITLE6=The Coming Home Of Hi-De-Hoo
TTITLE7=Sophisticated Lady
TTITLE8=Nobody's Sweetheart
TTITLE9=My Pretty Girl
TTITLE10=Dinah
TTITLE11=Bug-A-Boo
TTITLE12=Happy As The Day Is Long
TTITLE13=I Would If I Could But I Can't
TTITLE14=Hard Corn
TTITLE15=Hot Nuts
TTITLE16=Shoutin' In The Amen Corner
TTITLE17=Move Turtle
TTITLE18=I Want To Ring Bells
EXTD=YEAR: 1933
EXTT0=
EXTT1=
EXTT2=
EXTT3=
EXTT4=
EXTT5=
EXTT6=
EXTT7=
EXTT8=
EXTT9=
EXTT10=
EXTT11=
EXTT12=
EXTT13=
EXTT14=
EXTT15=
EXTT16=
EXTT17=
EXTT18=
PLAYORDER=
